<?xml version="1.0" encoding="iso-8859-1"?>
<!-- Generator: Adobe Illustrator 19.0.0, SVG Export Plug-In . SVG Version: 6.00 Build 0)  -->
<svg version="1.1" id="Capa_1" xmlns="http://www.w3.org/2000/svg" xmlns:xlink="http://www.w3.org/1999/xlink" x="0px" y="0px"
	 viewBox="0 0 512 512" style="enable-background:new 0 0 512 512;" xml:space="preserve">
<path style="fill:#3BCD92;" d="M494.926,355.022v-89.025c0-0.96-0.224-1.906-0.652-2.764l-54.367-108.727
	c-2.891-5.781-8.801-9.434-15.265-9.434H316.919v209.856L494.926,355.022z"/>
<path style="fill:#36A882;" d="M494.274,263.232l-54.367-108.727c-2.891-5.781-8.801-9.434-15.265-9.434h-20.594
	c6.464,0,12.373,3.652,15.265,9.434l54.367,108.727c0.43,0.858,0.653,1.805,0.653,2.764v89.014l20.595,0.01v-89.025
	C494.926,265.037,494.702,264.091,494.274,263.232z"/>
<path style="fill:#FEB756;" d="M324.26,349.861V110.941c0-9.426-7.642-17.067-17.068-17.067H34.125
	c-9.426,0-17.067,7.641-17.067,17.067v238.932L324.26,349.861z"/>
<path style="fill:#FA8043;" d="M307.192,93.873h-20.604c9.426,0,17.068,7.641,17.068,17.067V349.86h20.604v-238.92
	C324.26,101.515,316.618,93.873,307.192,93.873z"/>
<path style="fill:#FD3A4E;" d="M42.669,318.097v35.571h-25.6v-41.752h19.419C39.901,311.916,42.669,314.684,42.669,318.097z"/>
<path style="fill:#85828C;" d="M68.267,383.993H6.181c-3.414,0-6.181-2.767-6.181-6.181v-21.77c0-3.414,2.767-6.181,6.181-6.181
	h62.086h375.466h62.086c3.414,0,6.181,2.767,6.181,6.181v21.77c0,3.414-2.767,6.181-6.181,6.181h-62.086H68.267z"/>
<path style="fill:#FEB756;" d="M494.934,298.659h-27.952c-3.414,0-6.181,2.767-6.181,6.181v13.24c0,3.414,2.767,6.181,6.181,6.181
	h27.953L494.934,298.659z"/>
<path style="fill:#57555C;" d="M392.534,273.868h-25.599c-4.267,0-7.726,3.459-7.726,7.726s3.459,7.726,7.726,7.726h25.599
	c4.267,0,7.726-3.459,7.726-7.726S396.801,273.868,392.534,273.868z"/>
<rect x="474.337" y="298.658" style="fill:#FA8043;" width="20.604" height="25.602"/>
<circle style="fill:#57555C;" cx="119.47" cy="366.928" r="51.199"/>
<circle style="fill:#85828C;" cx="119.47" cy="366.928" r="25.599"/>
<path style="fill:#57555C;" d="M119.468,354.928c-4.267,0-7.726,3.459-7.726,7.726v8.534c0,4.267,3.459,7.726,7.726,7.726
	c4.268,0,7.726-3.459,7.726-7.726v-8.534C127.194,358.387,123.736,354.928,119.468,354.928z"/>
<path style="fill:#4B494F;" d="M119.467,315.725c-3.528,0-6.974,0.357-10.302,1.037c23.339,4.768,40.897,25.415,40.897,50.163
	s-17.558,45.394-40.897,50.163c3.327,0.68,6.773,1.037,10.302,1.037c28.276,0,51.199-22.923,51.199-51.199
	C170.667,338.648,147.743,315.725,119.467,315.725z"/>
<circle style="fill:#57555C;" cx="392.53" cy="366.928" r="51.199"/>
<circle style="fill:#85828C;" cx="392.53" cy="366.928" r="25.599"/>
<path style="fill:#57555C;" d="M392.534,354.928c-4.268,0-7.726,3.459-7.726,7.726v8.534c0,4.267,3.458,7.726,7.726,7.726
	c4.268,0,7.726-3.459,7.726-7.726v-8.534C400.26,358.387,396.801,354.928,392.534,354.928z"/>
<path style="fill:#4B494F;" d="M392.533,315.725c-3.528,0-6.974,0.357-10.302,1.037c23.339,4.768,40.897,25.415,40.897,50.163
	s-17.558,45.394-40.897,50.163c3.328,0.68,6.773,1.037,10.302,1.037c28.276,0,51.199-22.923,51.199-51.199
	C443.732,338.648,420.809,315.725,392.533,315.725z"/>
<path style="fill:#57555C;" d="M505.819,349.861h-20.604c3.414,0,6.181,2.767,6.181,6.181v21.77c0,3.414-2.767,6.181-6.181,6.181
	h20.604c3.414,0,6.181-2.767,6.181-6.181v-21.77C512,352.628,509.233,349.861,505.819,349.861z"/>
<g>
	<path style="fill:#C0E3F0;" d="M486.393,247.472h-21.781c-2.342,0-4.481-1.323-5.529-3.417l-32.219-64.435
		c-2.055-4.109,0.933-8.945,5.528-8.945h15.599L486.393,247.472z"/>
	<path style="fill:#C0E3F0;" d="M425.679,247.471h-47.66c-1.639,0-3.211-0.651-4.37-1.81l-21.979-21.978
		c-1.159-1.159-1.811-2.731-1.811-4.371v-42.457c0-3.414,2.767-6.181,6.181-6.181h41.002c2.443,0,4.656,1.438,5.648,3.671
		l28.637,64.436C433.144,242.867,430.152,247.471,425.679,247.471z"/>
</g>
<g>
	<path style="fill:#FA8043;" d="M102.39,289.332H68.259c-4.267,0-7.726-3.458-7.726-7.726V145.073c0-4.268,3.459-7.726,7.726-7.726
		h34.131c4.267,0,7.726,3.458,7.726,7.726v136.532C110.116,285.873,106.658,289.332,102.39,289.332z M75.985,273.879h18.678v-121.08
		H75.985V273.879z"/>
	<path style="fill:#FA8043;" d="M187.725,289.332h-34.132c-4.267,0-7.726-3.458-7.726-7.726V145.073
		c0-4.268,3.459-7.726,7.726-7.726h34.132c4.267,0,7.726,3.458,7.726,7.726v136.532
		C195.451,285.873,191.993,289.332,187.725,289.332z M161.319,273.879h18.679v-121.08h-18.679V273.879z"/>
	<path style="fill:#FA8043;" d="M273.06,289.332h-34.132c-4.267,0-7.726-3.458-7.726-7.726V145.073c0-4.268,3.459-7.726,7.726-7.726
		h34.132c4.267,0,7.726,3.458,7.726,7.726v136.532C280.786,285.873,277.327,289.332,273.06,289.332z M246.654,273.879h18.679
		v-121.08h-18.679V273.879z"/>
</g>
<g>
	<path style="fill:#A3CFE3;" d="M428.213,172.308l37.584,75.164h20.595l-38.402-76.797h-15.599
		C430.734,170.675,429.292,171.309,428.213,172.308z"/>
	<path style="fill:#A3CFE3;" d="M431.328,238.779l-28.637-64.436c-0.992-2.232-3.206-3.671-5.648-3.671h-20.604
		c2.443,0,4.656,1.438,5.648,3.671l28.637,64.436c1.816,4.088-1.175,8.692-5.648,8.692h20.604
		C430.152,247.471,433.144,242.867,431.328,238.779z"/>
</g>
<g>
</g>
<g>
</g>
<g>
</g>
<g>
</g>
<g>
</g>
<g>
</g>
<g>
</g>
<g>
</g>
<g>
</g>
<g>
</g>
<g>
</g>
<g>
</g>
<g>
</g>
<g>
</g>
<g>
</g>
</svg>
