<svg viewBox="-2 0 512 512.00002" xmlns="http://www.w3.org/2000/svg"><path d="m403.492188 435.117188-28.8125-24.316407c42.757812-50.671875 70.386718-122.082031 70.386718-181.921875 0-105.414062-85.761718-191.175781-191.179687-191.175781-105.414063 0-191.179688 85.761719-191.179688 191.179687 0 59.839844 27.628907 131.246094 70.390625 181.917969l-28.816406 24.316407c-48.898438-57.949219-79.277344-136.972657-79.277344-206.234376.003906-126.207031 102.679688-228.882812 228.882813-228.882812 126.207031 0 228.882812 102.675781 228.882812 228.882812 0 69.261719-30.378906 148.285157-79.277343 206.234376zm0 0" fill="#c6c5ca"/><path d="m20.621094 351.042969s-34.167969-122.855469 11.117187-218.136719c5.585938-11.757812 20.296875-15.855469 31.238281-8.808594 7.222657 4.644532 15.339844 9.820313 22.207032 14.179688 8.65625 5.492187 12.234375 16.277344 8.671875 25.890625-10.78125 29.09375-26.714844 96.246093 7.605469 186.875zm0 0" fill="#ff94de"/><path d="m101.460938 351.042969c-30.949219-81.722657-21.035157-144.347657-10.882813-177.199219 0 0-61.507813 55.609375-37.304687 177.199219 22.625-.167969 48.1875 0 48.1875 0zm0 0" fill="#ff71da"/><path d="m153.53125 470.011719-40.476562 20.644531-75.160157-147.371094 40.476563-20.644531c14.964844-7.632813 33.28125-1.6875 40.914062 13.277344l47.523438 93.183593c7.632812 14.960938 1.6875 33.28125-13.277344 40.910157zm0 0" fill="#898890"/><path d="m120.308594 506.050781c-26.761719 13.648438-59.519532 3.019531-73.164063-23.742187l-41.195312-80.769532c-13.648438-26.761718-3.019531-59.515624 23.742187-73.164062 0 0 29.550782-15.070312 44.617188 14.480469l60.476562 118.578125c15.070313 29.546875-14.476562 44.617187-14.476562 44.617187zm0 0" fill="#7de7ff"/><path d="m134.785156 461.433594-60.476562-118.578125c-15.070313-29.550781-44.621094-14.480469-44.621094-14.480469-4.53125 2.3125-8.601562 5.171875-12.167969 8.457031 3.753907 3.351563 7.277344 7.855469 10.316407 13.8125l75.097656 147.25c2.316406 4.535157 3.78125 8.796875 4.574218 12.785157 4.347657-.980469 8.644532-2.511719 12.796876-4.628907 0 0 29.550781-15.070312 14.480468-44.617187zm0 0" fill="#4ad6ed"/><path d="m487.152344 351.042969s34.167968-122.855469-11.117188-218.136719c-5.585937-11.757812-20.296875-15.855469-31.238281-8.808594-7.21875 4.644532-15.339844 9.820313-22.207031 14.179688-8.65625 5.492187-12.230469 16.277344-8.667969 25.890625 10.777344 29.09375 26.714844 96.246093-7.605469 186.875zm0 0" fill="#ffde55"/><path d="m406.316406 351.042969c30.945313-81.722657 21.03125-144.347657 10.878906-177.199219 0 0 61.496094 55.609375 37.296876 177.199219-22.628907-.167969-48.175782 0-48.175782 0zm0 0" fill="#ffcd00"/><path d="m354.242188 470.011719 40.476562 20.644531 75.160156-147.375-40.476562-20.640625c-14.964844-7.632813-33.28125-1.6875-40.914063 13.277344l-47.523437 93.179687c-7.632813 14.964844-1.6875 33.285156 13.277344 40.914063zm0 0" fill="#898890"/><path d="m387.46875 506.050781c26.757812 13.648438 59.515625 3.019531 73.164062-23.742187l41.191407-80.769532c13.648437-26.761718 3.019531-59.515624-23.742188-73.164062 0 0-29.546875-15.070312-44.617187 14.480469l-60.476563 118.578125c-15.070312 29.546875 14.480469 44.617187 14.480469 44.617187zm0 0" fill="#7de7ff"/><path d="m372.992188 461.433594 60.472656-118.578125c15.070312-29.550781 44.621094-14.480469 44.621094-14.480469 4.53125 2.3125 8.597656 5.171875 12.167968 8.457031-3.753906 3.351563-7.277344 7.851563-10.316406 13.8125l-75.097656 147.25c-2.316406 4.535157-3.777344 8.796875-4.574219 12.785157-4.347656-.980469-8.644531-2.511719-12.796875-4.628907 0 0-29.546875-15.070312-14.476562-44.617187zm0 0" fill="#4ad6ed"/></svg>