<?xml version="1.0"?>
<svg xmlns="http://www.w3.org/2000/svg" xmlns:xlink="http://www.w3.org/1999/xlink" xmlns:svgjs="http://svgjs.com/svgjs" version="1.1" width="512" height="512" x="0" y="0" viewBox="0 0 64 64" style="enable-background:new 0 0 512 512" xml:space="preserve" class=""><g><path xmlns="http://www.w3.org/2000/svg" d="m22.651 20c1.746-3.573 4.034-6.079 5.853-7.674-5.074.9-9.482 3.715-12.466 7.674z" fill="#ffffff" data-original="#000000" style="" class=""/><circle xmlns="http://www.w3.org/2000/svg" cx="13" cy="8" r="5" fill="#ffffff" data-original="#000000" style="" class=""/><path xmlns="http://www.w3.org/2000/svg" d="m12.051 31h7.972c.11-3.475.782-6.464 1.758-9h-7.074c-1.553 2.673-2.494 5.733-2.656 9z" fill="#ffffff" data-original="#000000" style="" class=""/><path xmlns="http://www.w3.org/2000/svg" d="m17.308 15.642c-1.048-.414-2.168-.642-3.308-.642h-2c-4.962 0-9 4.038-9 9v10c0 1.654 1.346 3 3 3v-15h2v37c0 1.103.897 2 2 2s2-.897 2-2v-17.852c-1.28-2.788-2-5.885-2-9.148 0-6.488 2.825-12.328 7.308-16.358z" fill="#ffffff" data-original="#000000" style="" class=""/><path xmlns="http://www.w3.org/2000/svg" d="m32 12.168c-1.246.797-4.61 3.254-7.096 7.832h14.192c-2.486-4.578-5.85-7.035-7.096-7.832z" fill="#ffffff" data-original="#000000" style="" class=""/><path xmlns="http://www.w3.org/2000/svg" d="m41.349 20h6.613c-2.984-3.959-7.392-6.774-12.466-7.674 1.819 1.595 4.106 4.101 5.853 7.674z" fill="#ffffff" data-original="#000000" style="" class=""/><path xmlns="http://www.w3.org/2000/svg" d="m40.063 22h-16.126c-1.049 2.479-1.795 5.464-1.915 9h19.956c-.121-3.536-.866-6.521-1.915-9zm-8.063 7h-2v-2h2zm4 0h-2v-2h2zm4 0h-2v-2h2z" fill="#ffffff" data-original="#000000" style="" class=""/><circle xmlns="http://www.w3.org/2000/svg" cx="51" cy="8" r="5" fill="#ffffff" data-original="#000000" style="" class=""/><path xmlns="http://www.w3.org/2000/svg" d="m41.978 33h-19.956c.121 3.536.866 6.521 1.915 9h16.125c1.05-2.479 1.795-5.464 1.916-9zm-15.978 4h-2v-2h2zm4 0h-2v-2h2zm4 0h-2v-2h2z" fill="#ffffff" data-original="#000000" style="" class=""/><path xmlns="http://www.w3.org/2000/svg" d="m32 51.832c1.246-.797 4.61-3.254 7.096-7.832h-14.192c2.486 4.578 5.85 7.035 7.096 7.832z" fill="#ffffff" data-original="#000000" style="" class=""/><path xmlns="http://www.w3.org/2000/svg" d="m41.349 44c-1.746 3.573-4.034 6.079-5.853 7.674 5.074-.9 9.482-3.715 12.466-7.674z" fill="#ffffff" data-original="#000000" style="" class=""/><path xmlns="http://www.w3.org/2000/svg" d="m21.78 42c-.975-2.536-1.647-5.525-1.758-9h-7.972c.163 3.267 1.104 6.327 2.656 9z" fill="#ffffff" data-original="#000000" style="" class=""/><path xmlns="http://www.w3.org/2000/svg" d="m46 48.958v10.042c0 1.103.897 2 2 2s2-.897 2-2v-14.374c-1.137 1.615-2.481 3.075-4 4.332z" fill="#ffffff" data-original="#000000" style="" class=""/><path xmlns="http://www.w3.org/2000/svg" d="m42.22 22c.975 2.536 1.647 5.525 1.758 9h7.972c-.163-3.267-1.104-6.327-2.656-9z" fill="#ffffff" data-original="#000000" style="" class=""/><path xmlns="http://www.w3.org/2000/svg" d="m52 15h-2c-1.14 0-2.26.227-3.308.642 4.483 4.03 7.308 9.87 7.308 16.358 0 3.263-.72 6.36-2 9.148v17.852c0 1.103.897 2 2 2s2-.897 2-2v-37h2v15c1.654 0 3-1.346 3-3v-10c0-4.962-4.038-9-9-9z" fill="#ffffff" data-original="#000000" style="" class=""/><path xmlns="http://www.w3.org/2000/svg" d="m42.22 42h7.074c1.552-2.673 2.493-5.733 2.656-9h-7.972c-.111 3.475-.783 6.464-1.758 9z" fill="#ffffff" data-original="#000000" style="" class=""/><path xmlns="http://www.w3.org/2000/svg" d="m22.651 44h-6.613c2.984 3.959 7.392 6.774 12.466 7.674-1.819-1.595-4.106-4.101-5.853-7.674z" fill="#ffffff" data-original="#000000" style="" class=""/><path xmlns="http://www.w3.org/2000/svg" d="m14 44.626v14.374c0 1.103.897 2 2 2s2-.897 2-2v-10.042c-1.519-1.257-2.863-2.717-4-4.332z" fill="#ffffff" data-original="#000000" style="" class=""/><path xmlns="http://www.w3.org/2000/svg" d="m28.372 8.071-3.014-1.206c2.157-.568 4.382-.865 6.642-.865 3.314 0 6.541.614 9.592 1.826l.738-1.858c-3.287-1.306-6.762-1.968-10.33-1.968-2.409 0-4.784.311-7.088.913l1.017-2.541-1.857-.743-2.372 5.928 5.928 2.372z" fill="#ffffff" data-original="#000000" style="" class=""/><path xmlns="http://www.w3.org/2000/svg" d="m35.628 55.929 3.003 1.201c-5.316 1.392-11.061 1.083-16.179-.938l-.734 1.86c3.273 1.292 6.732 1.948 10.282 1.948 2.409 0 4.784-.311 7.088-.913l-1.017 2.541 1.857.743 2.371-5.929-5.928-2.372z" fill="#ffffff" data-original="#000000" style="" class=""/></g></svg>
