<svg height="512pt" viewBox="0 0 512 512.00116" width="512pt" xmlns="http://www.w3.org/2000/svg"><path d="m388.183594 254.550781-128.171875 99.582031-20.394531-15.871093c-5.433594-4.179688-13-4.179688-18.433594 0l-20.394532 15.871093-132.523437-102.910156-59.730469-46.421875 59.730469-46.507812zm0 0" fill="#f57c00"/><path d="m374.871094 9.132812-8.277344 381.269532-106.328125 52.308594-21.585937-10.070313-168.195313-78.507813-2.21875-102.910156v-219.734375c-.011719-6.089843 2.402344-11.9375 6.710937-16.246093 4.308594-4.304688 10.152344-6.71875 16.246094-6.707032h278.355469c1.78125-.019531 3.558594.183594 5.292969.597656zm0 0" fill="#9e9e9e"/><path d="m332.800781 9.132812-8.277343 381.269532-85.84375 42.238281-168.195313-78.507813-2.21875-102.910156v-219.734375c-.011719-6.089843 2.402344-11.9375 6.710937-16.246093 4.308594-4.304688 10.152344-6.71875 16.246094-6.707032h236.289063c1.78125-.019531 3.554687.183594 5.289062.597656zm0 0" fill="#f5f5f5"/><path d="m452.265625 273.835938v195.5c.042969 9.6875-4.09375 18.921874-11.347656 25.34375l-16.640625-12.886719-164.265625-127.660157 121.003906-94.035156 7.167969-5.546875zm0 0" fill="#f57c00"/><path d="m426.667969 273.835938v195.5c0 4.265624-.8125 8.492187-2.390625 12.457031l-164.265625-127.660157 121.003906-94.035156zm0 0" fill="#fec108"/><path d="m440.917969 494.679688c-6.242188 5.648437-14.363281 8.78125-22.785157 8.789062h-375.464843c-8.421875-.007812-16.539063-3.140625-22.785157-8.789062l180.90625-140.546876 20.394532-15.871093c5.433594-4.179688 13-4.179688 18.433594 0l20.394531 15.871093zm0 0" fill="#ffeb3a"/><path d="m200.789062 354.132812-180.90625 140.546876c-7.253906-6.421876-11.390624-15.65625-11.347656-25.34375v-264.535157l59.730469 46.421875zm0 0" fill="#fec108"/><path d="m401.066406 45.3125v-15.871094c-.007812-5.558594-2.253906-10.878906-6.226562-14.761718-4.042969-3.941407-9.460938-6.144532-15.105469-6.144532-11.660156-.105468-21.203125 9.246094-21.332031 20.90625v16.042969zm0 0" fill="#f29c1f"/><path d="m503.46875 238.167969v27.902343c.023438 3.839844-3.074219 6.972657-6.914062 6.996094h-233.640626c-3.84375-.023437-6.9375-3.15625-6.914062-6.996094v-27.902343c-.019531-3.742188 2.917969-6.832031 6.65625-7h.257812c7.324219.015625 14.34375-2.941407 19.453126-8.191407 5.171874-5.253906 8.054687-12.339843 8.023437-19.710937v-67.074219c.101563-26.234375 10.957031-51.28125 30.035156-69.289062 10.851563-10.351563 24.152344-17.78125 38.65625-21.589844 6.777344-1.746094 13.742188-2.632812 20.738281-2.644531 6.929688-.003907 13.832032.828125 20.566407 2.472656 16.144531 3.914063 30.871093 12.28125 42.496093 24.152344 16.863282 17.089843 26.28125 40.160156 26.195313 64.167969v69.804687c-.0625 7.347656 2.796875 14.417969 7.949219 19.652344 5.15625 5.234375 12.183594 8.203125 19.527344 8.25 3.839843.027343 6.9375 3.15625 6.914062 7zm0 0" fill="#f57c00"/><path d="m477.867188 255.234375v17.832031h-214.953126c-3.84375-.023437-6.9375-3.15625-6.914062-6.996094v-25.34375c.277344-.203124.535156-.433593.769531-.683593 2.507813-2.558594 4.503907-5.570313 5.886719-8.875h.257812c7.324219.015625 14.34375-2.941407 19.453126-8.191407 5.171874-5.253906 8.054687-12.339843 8.023437-19.710937v-67.074219c.101563-26.234375 10.957031-51.28125 30.035156-69.289062 4.207031-1.898438 8.578125-3.414063 13.058594-4.523438 6.773437-1.742187 13.738281-2.632812 20.734375-2.644531 6.929688-.003906 13.835938.828125 20.566406 2.476563 16.148438 3.910156 30.871094 12.277343 42.496094 24.148437 16.863281 17.089844 26.28125 40.160156 26.195312 64.167969v69.804687c-.0625 7.347657 2.796876 14.417969 7.953126 19.652344 5.152343 5.234375 12.179687 8.203125 19.527343 8.25 3.839844.027344 6.933594 3.15625 6.910157 7zm0 0" fill="#fec108"/><path d="m324.527344 162.132812c-4.714844 0-8.535156-3.820312-8.535156-8.53125v-17.410156c.070312-30.535156 20.175781-57.402344 49.453124-66.082031 4.695313-1.210937 9.523438-1.832031 14.371094-1.839844 4.714844 0 8.535156 3.820313 8.535156 8.53125 0 4.714844-3.820312 8.535157-8.535156 8.535157-3.414062.007812-6.816406.449218-10.125 1.308593-21.816406 6.605469-36.710937 26.75-36.632812 49.546875v17.410156c0 4.710938-3.820313 8.53125-8.53125 8.53125zm0 0" fill="#fff"/><path d="m324.527344 211.796875c-4.714844 0-8.535156-3.820313-8.535156-8.535156v-15.527344c0-4.710937 3.820312-8.535156 8.535156-8.535156 4.710937 0 8.53125 3.824219 8.53125 8.535156v15.527344c0 4.714843-3.820313 8.535156-8.53125 8.535156zm0 0" fill="#fff"/><path d="m420.949219 273.066406c.398437 23.164063-18.054688 42.265625-41.214844 42.667969-3.875.007813-7.730469-.566406-11.433594-1.707031-11.945312-3.625-21.628906-12.429688-26.371093-23.976563-2.257813-5.378906-3.417969-11.152343-3.410157-16.984375zm0 0" fill="#ff5722"/><path d="m398.167969 273.066406c.203125 18.757813-11.945313 35.421875-29.867188 40.960938-11.945312-3.625-21.628906-12.429688-26.371093-23.976563-2.257813-5.378906-3.417969-11.152343-3.410157-16.984375zm0 0" fill="#f57c00"/><g fill="#2c2f38"><path d="m128 76.800781h-17.066406c-4.710938 0-8.53125-3.820312-8.53125-8.53125 0-4.714843 3.820312-8.535156 8.53125-8.535156h17.066406c4.714844 0 8.535156 3.820313 8.535156 8.535156 0 4.710938-3.820312 8.53125-8.535156 8.53125zm0 0"/><path d="m256 76.800781h-85.332031c-4.714844 0-8.535157-3.820312-8.535157-8.53125 0-4.714843 3.820313-8.535156 8.535157-8.535156h85.332031c4.714844 0 8.535156 3.820313 8.535156 8.535156 0 4.710938-3.820312 8.53125-8.535156 8.53125zm0 0"/><path d="m128 119.46875h-17.066406c-4.710938 0-8.53125-3.820312-8.53125-8.535156 0-4.710938 3.820312-8.53125 8.53125-8.53125h17.066406c4.714844 0 8.535156 3.820312 8.535156 8.53125 0 4.714844-3.820312 8.535156-8.535156 8.535156zm0 0"/><path d="m256 119.46875h-85.332031c-4.714844 0-8.535157-3.820312-8.535157-8.535156 0-4.710938 3.820313-8.53125 8.535157-8.53125h85.332031c4.714844 0 8.535156 3.820312 8.535156 8.53125 0 4.714844-3.820312 8.535156-8.535156 8.535156zm0 0"/><path d="m128 162.132812h-17.066406c-4.710938 0-8.53125-3.820312-8.53125-8.53125 0-4.714843 3.820312-8.535156 8.53125-8.535156h17.066406c4.714844 0 8.535156 3.820313 8.535156 8.535156 0 4.710938-3.820312 8.53125-8.535156 8.53125zm0 0"/><path d="m256 162.132812h-85.332031c-4.714844 0-8.535157-3.820312-8.535157-8.53125 0-4.714843 3.820313-8.535156 8.535157-8.535156h85.332031c4.714844 0 8.535156 3.820313 8.535156 8.535156 0 4.710938-3.820312 8.53125-8.535156 8.53125zm0 0"/></g><path d="m496.558594 222.632812c-10.574219-.128906-19.050782-8.792968-18.949219-19.367187v-69.800781c.128906-26.261719-10.179687-51.496094-28.648437-70.164063-10.992188-11.097656-24.492188-19.386719-39.359376-24.175781v-9.683594c-.023437-7.847656-3.191406-15.363281-8.796874-20.859375-6.96875-6.898437-16.898438-9.90625-26.523438-8.039062-1.550781-.300781-3.121094-.4843752-4.703125-.542969h-278.355469c-17.382812.0195312-31.46875 14.105469-31.488281 31.488281v122.632813l-56.441406 43.945312c-.144531.113282-.207031.277344-.339844.394532-.269531.238281-.523437.492187-.757813.761718-.121093.132813-.285156.195313-.398437.339844-.136719.179688-.164063.394531-.289063.578125-.210937.304687-.402343.621094-.570312.949219-.304688.671875-.535156 1.378906-.6875 2.101562-.074219.363282-.125.734375-.148438 1.105469-.007812.175781-.101562.324219-.101562.503906v264.535157c-.0429688 12.105468 5.117188 23.648437 14.171875 31.6875 7.8125 7.058593 17.964844 10.972656 28.496094 10.976562h375.464843c23.539063-.066406 42.601563-19.128906 42.667969-42.664062v-187.734376h35.757813c8.550781-.035156 15.457031-6.980468 15.441406-15.53125v-27.902343c.019531-8.550781-6.890625-15.5-15.441406-15.535157zm-129.625-193.191406c.128906-6.945312 5.851562-12.480468 12.800781-12.375 3.414063.007813 6.691406 1.339844 9.140625 3.71875 2.328125 2.28125 3.648438 5.398438 3.660156 8.65625v5.621094c-8.496094-1.152344-17.113281-1.125-25.601562.078125zm-290.132813 2.046875c.011719-7.960937 6.460938-14.410156 14.421875-14.421875h261.507813c-1.863281 3.863282-2.84375 8.089844-2.863281 12.375v9.769532c-40.820313 14.796874-68.007813 53.566406-68.007813 96.980468v67.074219c.027344 5.132813-1.980469 10.066406-5.578125 13.726563-3.511719 3.613281-8.332031 5.648437-13.367188 5.644531-8.550781.03125-15.460937 6.980469-15.445312 15.53125v27.902343c-.015625 8.550782 6.894531 15.496094 15.445312 15.53125h67.816407c.3125 1.949219.742187 3.878907 1.277343 5.777344l-71.980468 55.9375-15.222656-11.828125c-8.527344-6.503906-20.355469-6.488281-28.863282.042969l-15.167968 11.785156-123.972657-96.296875zm-17.066406 144.261719v58.015625l-37.300781-28.972656zm-42.667969 293.585938v-247.101563l169.796875 131.890625-165.757812 128.804688c-2.613281-4.054688-4.011719-8.773438-4.039063-13.59375zm401.066406 25.597656h-375.464843c-2.574219-.03125-5.132813-.457032-7.578125-1.265625l191.28125-148.628907c2.347656-1.835937 5.640625-1.855468 8.003906-.042968l191.339844 148.675781c-2.449219.804687-5.003906 1.230469-7.582032 1.261719zm25.601563-25.597656c-.027344 4.820312-1.429687 9.535156-4.042969 13.585937l-165.757812-128.796875 65.675781-51.035156c9.121094 13.179687 24.097656 21.085937 40.125 21.179687 24.570313-.324219 45.300781-18.375 49-42.667969h15zm-95.519531-187.734376h63.042968c-2.910156 13.945313-14.644531 24.320313-28.84375 25.492188-14.195312 1.171875-27.472656-7.136719-32.628906-20.417969-.65625-1.648437-1.179687-3.34375-1.570312-5.074219zm146.71875-17.066406h-230.398438v-24.871094c9.042969-.390624 17.597656-4.21875 23.914063-10.703124 6.75-6.847657 10.515625-16.085938 10.476562-25.699219v-67.070313c-.160156-38.402344 25.316407-72.195312 62.277344-82.609375 12.195313-3.136719 24.976563-3.183593 37.195313-.140625 14.597656 3.546875 27.910156 11.117188 38.417968 21.851563 15.304688 15.480469 23.839844 36.402343 23.726563 58.171875v69.796875c-.082031 19.367187 15.050781 35.386719 34.390625 36.402343zm0 0"/><path d="m379.816406 68.269531c-4.847656.007813-9.675781.625-14.371094 1.839844-29.277343 8.679687-49.382812 35.546875-49.453124 66.082031v17.410156c0 4.710938 3.820312 8.53125 8.535156 8.53125 4.710937 0 8.53125-3.820312 8.53125-8.53125v-17.410156c-.078125-22.792968 14.816406-42.941406 36.632812-49.546875 3.308594-.859375 6.710938-1.300781 10.125-1.308593 4.714844 0 8.535156-3.820313 8.535156-8.535157 0-4.710937-3.820312-8.53125-8.535156-8.53125zm0 0"/><path d="m324.527344 179.199219c-4.714844.003906-8.535156 3.824219-8.535156 8.535156v15.527344c0 4.714843 3.820312 8.535156 8.535156 8.535156 4.710937 0 8.53125-3.820313 8.53125-8.535156v-15.527344c0-4.710937-3.820313-8.535156-8.53125-8.535156zm0 0"/><path d="m128 59.734375h-17.066406c-4.710938 0-8.53125 3.820313-8.53125 8.535156 0 4.710938 3.820312 8.53125 8.53125 8.53125h17.066406c4.714844 0 8.535156-3.820312 8.535156-8.53125 0-4.714843-3.820312-8.535156-8.535156-8.535156zm0 0"/><path d="m170.667969 76.800781h85.332031c4.714844 0 8.535156-3.820312 8.535156-8.53125 0-4.714843-3.820312-8.535156-8.535156-8.535156h-85.332031c-4.714844 0-8.535157 3.820313-8.535157 8.535156 0 4.710938 3.820313 8.53125 8.535157 8.53125zm0 0"/><path d="m128 102.402344h-17.066406c-4.710938 0-8.53125 3.820312-8.53125 8.53125 0 4.714844 3.820312 8.535156 8.53125 8.535156h17.066406c4.714844 0 8.535156-3.820312 8.535156-8.535156 0-4.710938-3.820312-8.53125-8.535156-8.53125zm0 0"/><path d="m170.667969 119.46875h85.332031c4.714844 0 8.535156-3.820312 8.535156-8.535156 0-4.710938-3.820312-8.53125-8.535156-8.53125h-85.332031c-4.714844 0-8.535157 3.820312-8.535157 8.53125 0 4.714844 3.820313 8.535156 8.535157 8.535156zm0 0"/><path d="m128 145.066406h-17.066406c-4.710938 0-8.53125 3.820313-8.53125 8.535156 0 4.710938 3.820312 8.53125 8.53125 8.53125h17.066406c4.714844 0 8.535156-3.820312 8.535156-8.53125 0-4.714843-3.820312-8.535156-8.535156-8.535156zm0 0"/><path d="m264.535156 153.601562c0-4.714843-3.820312-8.535156-8.535156-8.535156h-85.332031c-4.714844 0-8.535157 3.820313-8.535157 8.535156 0 4.710938 3.820313 8.53125 8.535157 8.53125h85.332031c4.714844 0 8.535156-3.820312 8.535156-8.53125zm0 0"/></svg>