<?xml version="1.0"?>
<svg xmlns="http://www.w3.org/2000/svg" xmlns:xlink="http://www.w3.org/1999/xlink" xmlns:svgjs="http://svgjs.com/svgjs" version="1.1" width="512" height="512" x="0" y="0" viewBox="0 0 510 510" style="enable-background:new 0 0 512 512" xml:space="preserve" class=""><g><path xmlns="http://www.w3.org/2000/svg" d="m375 330h-75v-25.145c35.443-16.883 60-53.053 60-94.855v-30h30v-90h-31.076c-7.301-50.816-51.119-90-103.924-90s-96.623 39.184-103.924 90h-31.076v90h30v30c0 41.803 24.557 77.973 60 94.855v25.145h-75c-49.626 0-90 40.374-90 90v90h420v-90c0-49.626-40.374-90-90-90zm-210 120h180v30h-180zm180-30h-180v-60h47.57c6.234 17.549 22.982 30 42.43 30 19.452 0 36.197-12.457 42.43-30h47.57zm-105-388.49v28.49h30v-28.49c29.344 5.979 52.511 29.146 58.49 58.49h-146.981c5.98-29.344 29.147-52.511 58.491-58.49zm-90 88.49h210v30h-210zm30 90v-30h150v30c0 41.312-33.612 75-75 75-41.204 0-75-33.511-75-75zm60 103.934c9.923 1.421 20.224 1.4 30 0v31.066c0 8.272-6.728 15-15 15-8.271 0-15-6.728-15-15 0-10.873 0-20.156 0-31.066zm-165 106.066c0-33.084 26.916-60 60-60v120h-60zm360 60h-60v-120c33.084 0 60 26.916 60 60z" fill="#ffffff" data-original="#000000" style=""/></g></svg>
