<?xml version="1.0" encoding="UTF-8"?>
<svg width="24px" height="24px" viewBox="0 0 24 24" version="1.1" xmlns="http://www.w3.org/2000/svg" xmlns:xlink="http://www.w3.org/1999/xlink">
    <!-- Generator: Sketch 50.2 (55047) - http://www.bohemiancoding.com/sketch -->
    <title>cross circle</title>
    <desc>Created with Sketch.</desc>
    <defs></defs>
    <g id="cross-circle" stroke="none" stroke-width="1" fill="none" fill-rule="evenodd">
        <path d="M3.995,12 C3.995,7.57923875 7.57823813,3.995 12,3.995 C16.4207613,3.995 20.005,7.57923875 20.005,12 C20.005,16.4207613 16.4207613,20.005 12,20.005 C7.57823813,20.005 3.995,16.4207613 3.995,12 Z M13.3158219,14.7196988 C13.7030638,15.1069406 14.3324569,15.1069406 14.7196988,14.7196988 C15.1079413,14.3324569 15.1079413,13.7030638 14.7196988,13.3158219 L13.4108812,12.0070044 L14.7196988,10.6971863 C15.1069406,10.3099444 15.1069406,9.68155188 14.7196988,9.29330938 C14.3314563,8.90506687 13.7030638,8.90506687 13.3158219,9.29330938 L12.0070044,10.6021269 L10.6931837,9.28930688 C10.3059419,8.90106438 9.67654875,8.90106438 9.28930687,9.28930688 C8.90106438,9.67654875 8.90106438,10.3049413 9.28930687,10.6931838 L10.6021269,12.0060038 L9.28930687,13.3198244 C8.90106438,13.7080669 8.90106438,14.3364594 9.28930687,14.7237013 C9.67654875,15.1119438 10.3059419,15.1119438 10.6931837,14.7237013 L12.0070044,13.4108813 L13.3158219,14.7196988 Z" id="Error-Icon" fill="#bebebe" fill-rule="nonzero"></path>
    </g>
</svg>