<svg height="512pt" viewBox="-16 0 512 512" width="512pt" xmlns="http://www.w3.org/2000/svg"><path d="m288 256h-96c-100.515625 0-182 81.484375-182 182v64h460v-64c0-100.515625-81.484375-182-182-182zm0 0" fill="#9bf"/><path d="m240 256 65.039062 65.039062 25.726563-59.972656c-13.71875-3.304687-28.035156-5.066406-42.765625-5.066406h-96c-12.277344 0-24.269531 1.222656-35.867188 3.542969l39.203126 41.125zm0 0" fill="#fff"/><path d="m250.308594 474.167969 58.824218-153.128907-66.730468-62.636718h-4.804688l-62.636718 62.636718 44.019531 121.800782zm0 0" fill="#5a54e0"/><path d="m151 260.636719c-28.527344 6.570312-54.484375 19.851562-76.140625 38.082031l202.386719 202.386719h114.222656zm0 0" fill="#fff"/><path d="m335 171.164062h-12.011719v-56h12.011719c15.464844 0 28 12.535157 28 28 0 15.464844-12.535156 28-28 28zm0 0" fill="#fcc89d"/><path d="m145 171.164062h12.011719v-56h-12.011719c-15.464844 0-28 12.535157-28 28 0 15.464844 12.535156 28 28 28zm0 0" fill="#fcc89d"/><path d="m281.671875 144h-83.34375c-24.300781 0-44-19.699219-44-44h171.34375c0 24.300781-19.699219 44-44 44zm0 0" fill="#6a80ff"/><path d="m153.804688 99.972656c-18.535157-9.550781-29.820313-22.199218-29.820313-36.070312 0-29.769532 51.957031-53.902344 116.046875-53.902344 64.09375 0 116.046875 24.132812 116.046875 53.902344 0 13.882812-11.304687 26.542968-29.871094 36.097656" fill="#6a80ff"/><path d="m322.988281 106.621094v66.390625c0 45.832031-37.15625 82.988281-82.988281 82.988281s-82.988281-37.15625-82.988281-82.988281v-66.390625" fill="#fcc89d"/><path d="m281.671875 144h-83.34375c-24.300781 0-44-19.699219-44-44h171.34375c0 24.300781-19.699219 44-44 44zm0 0" fill="#41489d"/><path d="m459.441406 351.476562c-2.492187-4.925781-8.503906-6.902343-13.433594-4.410156-4.929687 2.492188-6.90625 8.507813-4.414062 13.4375 12.214844 24.148438 18.40625 50.226563 18.40625 77.496094v54h-63.496094l-103.011718-103.011719 44.03125-115.769531c17.882812 5.359375 34.839843 13.65625 50.324218 24.710938 4.492188 3.210937 10.738282 2.167968 13.949219-2.328126 3.207031-4.492187 2.167969-10.738281-2.328125-13.949218-30.148438-21.527344-65.308594-33.679688-102.207031-35.425782 19.726562-15.457031 33.0625-38.703124 35.367187-65.0625h2.371094c20.953125 0 38-17.046874 38-38 0-20.175781-15.808594-36.722656-35.6875-37.921874 18.613281-11.28125 28.765625-25.777344 28.765625-41.339844 0-18.511719-14.125-35.269532-39.773437-47.183594-23.210938-10.78125-53.851563-16.71875-86.273438-16.71875s-63.0625 5.9375-86.269531 16.71875c-25.652344 11.914062-39.777344 28.671875-39.777344 47.183594 0 15.558594 10.148437 30.050781 28.761719 41.335937-19.90625 1.167969-35.746094 17.730469-35.746094 37.925781 0 20.953126 17.046875 38 38 38h2.371094c2.304687 26.359376 15.640625 49.601563 35.367187 65.0625-11.425781.546876-22.59375 2.09375-33.417969 4.5625-.414062.070313-.828124.160157-1.234374.285157-84.777344 19.910156-148.085938 96.160156-148.085938 186.925781v64c0 5.523438 4.476562 10 10 10h460c5.523438 0 10-4.476562 10-10v-64c0-30.4375-6.914062-59.546875-20.558594-86.523438zm-177.160156 140.523438-192.347656-192.351562c17.179687-12.707032 36.796875-22.292969 58.011718-27.921876l126.976563 126.972657c.003906.007812.007813.011719.015625.019531l93.28125 93.28125zm-110.574219-224.796875c6.65625-.785156 13.429688-1.203125 20.292969-1.203125h23.855469l-22.675781 22.675781zm35.617188 35.617187 32.675781-32.675781 56 55.996094-18.007812 47.347656zm96.46875 2.828126-39.648438-39.648438h23.855469c10.113281 0 20.105469.867188 29.890625 2.578125zm-137.964844-195.648438h148.34375c-4.28125 13.882812-17.230469 24-32.5 24h-83.34375c-15.269531 0-28.21875-10.117188-32.5-24zm187.171875 33.164062c0 9.925782-8.074219 18-18 18h-2.011719v-36h2.011719c9.925781 0 18 8.074219 18 18zm-219.019531-79.261718c0-20.765625 43.554687-43.902344 106.050781-43.902344s106.046875 23.136719 106.046875 43.902344c0 8.871094-8.132813 18.300781-22.382813 26.097656h-167.328124c-14.25-7.796875-22.386719-17.230469-22.386719-26.097656zm-6.980469 79.261718c0-9.925781 8.074219-18 18-18h2.011719v36h-2.011719c-9.925781 0-18-8.074218-18-18zm40.011719 29.847657v-29.0625c8.839843 6.316406 19.648437 10.050781 31.316406 10.050781h83.34375c11.667969 0 22.476563-3.734375 31.316406-10.050781v29.0625c0 40.246093-32.742187 72.988281-72.988281 72.988281s-72.988281-32.742188-72.988281-72.988281zm-147.011719 264.988281c0-49.449219 20.984375-94.085938 54.507812-125.492188l179.488282 179.492188h-233.996094zm0 0"/><path d="m391.570312 378.421875h-55.980468c-5.523438 0-10 4.476563-10 10 0 5.519531 4.476562 10 10 10h55.980468c5.523438 0 10-4.480469 10-10 0-5.523437-4.476562-10-10-10zm0 0"/><path d="m427.449219 331.039062c2.628906 0 5.210937-1.070312 7.070312-2.929687s2.929688-4.4375 2.929688-7.070313c0-2.628906-1.070313-5.210937-2.929688-7.070312s-4.441406-2.929688-7.070312-2.929688c-2.640625 0-5.210938 1.070313-7.070313 2.929688-1.859375 1.863281-2.929687 4.441406-2.929687 7.070312 0 2.632813 1.070312 5.210938 2.929687 7.070313s4.429688 2.929687 7.070313 2.929687zm0 0"/></svg>