<svg height="512pt" viewBox="0 0 512 512" width="512pt" xmlns="http://www.w3.org/2000/svg" xmlns:xlink="http://www.w3.org/1999/xlink"><linearGradient id="a" gradientUnits="userSpaceOnUse" x1="0" x2="512" y1="256" y2="256"><stop offset="0" stop-color="#00f1ff"/><stop offset=".231" stop-color="#00d8ff"/><stop offset=".5138" stop-color="#00c0ff"/><stop offset=".7773" stop-color="#00b2ff"/><stop offset="1" stop-color="#00adff"/></linearGradient><path d="m512 256c0 141.386719-114.613281 256-256 256s-256-114.613281-256-256 114.613281-256 256-256 256 114.613281 256 256zm0 0" fill="url(#a)"/><g fill="#fff"><path d="m409.019531 242.945312c-8.285156 0-15 6.714844-15 15v112.171876c0 13.179687-10.722656 23.902343-23.902343 23.902343h-228.230469c-13.183594 0-23.902344-10.722656-23.902344-23.902343v-228.234376c0-13.179687 10.722656-23.902343 23.902344-23.902343h112.816406c8.285156 0 15-6.714844 15-15 0-8.28125-6.714844-15-15-15h-112.816406c-29.726563 0-53.90625 24.183593-53.90625 53.902343v228.230469c0 29.722657 24.183593 53.902344 53.90625 53.902344h228.226562c29.726563 0 53.90625-24.179687 53.90625-53.902344v-112.167969c0-8.285156-6.714843-15-15-15zm0 0"/><path d="m265.296875 211.351562c.28125.589844.601563 1.160157.960937 1.710938.859376 1.324219 2.71875 4.132812 4.90625 7.207031l-41.332031 41.332031c-5.859375 5.859376-5.859375 15.355469 0 21.214844 2.929688 2.929688 6.769531 4.394532 10.605469 4.394532 3.839844 0 7.679688-1.464844 10.609375-4.394532l21.53125-21.53125c.09375.183594.1875.367188.277344.546875 2.191406 4.625 3.300781 9.273438 3.300781 13.816407 0 12.703124-7.359375 26.84375-21.289062 40.914062l-1.140626.984375c-.546874.472656-1.058593.984375-1.527343 1.527344l-.980469 1.132812c-14.082031 13.933594-28.21875 21.292969-40.910156 21.292969-6.847656 0-13.199219-2.113281-19.386719-6.453125-.246094-.210937-.496094-.417969-.75-.613281l-1.261719-.964844c-1.804687-1.382812-3.589844-2.957031-5.3125-4.675781-8.375-8.363281-12.449218-17.015625-12.449218-26.449219 0-12.707031 7.359374-26.84375 21.292968-40.914062l1.140625-.988282c.542969-.46875 1.050781-.976562 1.519531-1.519531l.984376-1.136719c11.066406-10.957031 21.734374-17.75 31.710937-20.191406 8.046875-1.972656 12.972656-10.089844 11-18.136719-1.96875-8.046875-10.09375-12.976562-18.136719-11.003906-15.480468 3.789063-31.007812 13.371094-46.144531 28.472656-.257813.257813-.507813.523438-.746094.800781l-.648437.746094-.742188.644532c-.273437.238281-.539062.484374-.792968.742187-19.914063 19.9375-30.4375 41.546875-30.4375 62.484375 0 17.554688 7.148437 33.597656 21.25 47.675781 2.640624 2.636719 5.417968 5.078125 8.257812 7.257813l.34375.261718c.402344.371094.828125.722657 1.269531 1.050782 11.636719 8.566406 24.433594 12.910156 38.035157 12.910156 20.925781 0 42.53125-10.523438 62.480468-30.433594.261719-.257812.511719-.527344.753906-.804687l.640626-.742188.742187-.644531c.273437-.238281.542969-.484375.796875-.742188 19.910156-19.941406 30.4375-41.546874 30.4375-62.484374 0-9.09375-2.117188-18.132813-6.285156-26.867188-.039063-.082031-.082032-.164062-.121094-.246094-.832031-1.660156-2.730469-5.34375-5.125-9.296875l40.710938-40.710937c5.855468-5.855469 5.855468-15.355469 0-21.214844-5.859376-5.855469-15.355469-5.855469-21.214844 0l-21.390625 21.394531c-.257813-.382812-.507813-.761719-.753907-1.128906-1.96875-4.386719-2.964843-8.789063-2.964843-13.097656 0-12.703125 7.359375-26.84375 21.289062-40.914063l1.140625-.984375c.546875-.472656 1.058594-.984375 1.527344-1.527343l.980469-1.132813c14.082031-13.933594 28.21875-21.292969 40.914062-21.292969 6.847657 0 13.199219 2.113282 19.390625 6.457032.242188.210937.488282.414062.746094.609374l1.257812.964844c1.808594 1.386719 3.59375 2.957032 5.3125 4.675782 8.378907 8.363281 12.449219 17.019531 12.449219 26.449218 0 12.707032-7.359375 26.84375-21.292969 40.914063l-1.136718.988281c-.542969.46875-1.054688.976562-1.523438 1.519531l-.980468 1.136719c-10.839844 10.714844-21.8125 17.332031-32.617188 19.671875-8.097656 1.753906-13.238281 9.738281-11.484375 17.835937 1.519531 7.027344 7.734375 11.828126 14.644531 11.828126 1.050782 0 2.117188-.109376 3.1875-.34375 16.644532-3.601563 32.738282-13.066407 47.835938-28.132813.257812-.257813.507812-.523437.746094-.800781l.648437-.746094.742187-.648438c.273438-.234374.539063-.480468.796876-.738281 19.910156-19.9375 30.433593-41.546875 30.433593-62.484375 0-17.554687-7.148437-33.597656-21.25-47.675781-2.632812-2.632813-5.410156-5.074219-8.257812-7.257813l-.347657-.265624c-.402343-.371094-.824218-.71875-1.265624-1.042969-11.636719-8.570313-24.433594-12.914063-38.035157-12.914063-20.925781 0-42.53125 10.523438-62.480469 30.433594-.261718.257812-.511718.527344-.753906.804688l-.640625.742187-.742187.644531c-.273438.234375-.542969.484375-.796875.742188-19.910157 19.9375-30.4375 41.546875-30.4375 62.484375 0 9.09375 2.117187 18.136719 6.285156 26.871093zm0 0"/></g></svg>