<?xml version="1.0" encoding="iso-8859-1"?>
<!-- Generator: Adobe Illustrator 19.0.0, SVG Export Plug-In . SVG Version: 6.00 Build 0)  -->
<svg xmlns="http://www.w3.org/2000/svg" xmlns:xlink="http://www.w3.org/1999/xlink" version="1.1" id="Layer_1" x="0px" y="0px" viewBox="0 0 512 512" style="enable-background:new 0 0 512 512;" xml:space="preserve" width="512" height="512">
<g>
	<path style="fill:#5DDCF9;" d="M378.532,504.502H89.71c-37.43,0-67.772-30.343-67.772-67.772V135.686   c0-37.43,30.343-67.772,67.772-67.772h276.257c44.369,0,80.337,35.968,80.337,80.337V436.73   C446.304,474.159,415.961,504.502,378.532,504.502z"/>
	<path style="fill:#43C5FF;" d="M388.879,71.257c2.167,7.269,3.348,14.963,3.348,22.936v0.286   c0,196.627-159.63,356.024-356.544,356.024h0c-4.295,0-8.491-0.417-12.564-1.179c5.894,31.405,33.479,55.177,66.641,55.177h288.723   c37.457,0,67.822-30.321,67.822-67.723V148.192C446.304,111.828,422.084,81.128,388.879,71.257z"/>
	<ellipse style="fill:#F33759;" cx="377.568" cy="119.828" rx="112.495" ry="112.33"/>
	<path style="fill:#CC2B5A;" d="M441.762,27.58c10.985,17.348,17.348,37.904,17.348,59.947c0,62.038-50.366,112.33-112.494,112.33   c-23.865,0-45.988-7.426-64.194-20.082c19.932,31.477,55.092,52.384,95.146,52.384c62.129,0,112.494-50.292,112.494-112.33   C490.062,81.62,470.953,47.873,441.762,27.58z"/>
</g>
<g>
	<path d="M310.008,497H89.757c-33.26,0-60.318-27.014-60.318-60.219V216.583c0-4.143-3.357-7.5-7.5-7.5s-7.5,3.357-7.5,7.5v220.198   c0,41.476,33.788,75.219,75.318,75.219h220.251c4.143,0,7.5-3.357,7.5-7.5S314.151,497,310.008,497z"/>
	<path d="M497.561,119.831c0-22.48-6.271-44.396-18.138-63.377c-2.196-3.514-6.823-4.581-10.335-2.384   c-3.513,2.195-4.58,6.822-2.384,10.335c10.373,16.595,15.856,35.76,15.856,55.426c0,57.804-47.101,104.83-104.994,104.83   s-104.994-47.026-104.994-104.83S319.673,15,377.567,15c24.336,0,48.055,8.502,66.787,23.939c3.194,2.633,7.922,2.179,10.558-1.019   c2.634-3.196,2.179-7.923-1.019-10.558C432.482,9.718,405.375,0,377.567,0c-44.53,0-83.471,24.35-104.177,60.416H89.757   c-41.53,0-75.318,33.743-75.318,75.22v45.533c0,4.143,3.357,7.5,7.5,7.5s7.5-3.357,7.5-7.5v-45.533   c0-33.205,27.059-60.22,60.318-60.22h176.365c-5.511,13.742-8.55,28.73-8.55,44.415c0,66.074,53.829,119.83,119.994,119.83   c22.355,0,43.298-6.144,61.236-16.818v213.938c0,33.205-27.059,60.219-60.318,60.219h-33.271c-4.143,0-7.5,3.357-7.5,7.5   s3.357,7.5,7.5,7.5h33.271c41.53,0,75.318-33.743,75.318-75.219v-224.48C480.509,190.305,497.561,157.02,497.561,119.831z"/>
	<path d="M377.567,174.045c4.143,0,7.5-3.357,7.5-7.5V73.144c0-2.97-1.752-5.66-4.469-6.86c-2.715-1.198-5.885-0.684-8.081,1.314   l-16.076,14.638c-3.063,2.789-3.284,7.532-0.496,10.596c2.79,3.063,7.533,3.284,10.596,0.496l3.526-3.212v76.43   C370.067,170.688,373.424,174.045,377.567,174.045z"/>
	<path d="M101.504,428.184c3.091,0,4.998-1.141,5.72-3.425l6.337-22.098h38.077l6.415,22.155c0.786,2.246,2.81,3.367,6.07,3.367   c2.696,0,5.247-0.701,7.655-2.105c2.406-1.401,3.611-3.076,3.611-5.02c0-0.324-0.104-0.81-0.31-1.457l-30.672-100.233   c-1.316-3.456-5.042-5.185-11.178-5.185c-6.026,0-9.698,1.856-11.013,5.564L91.458,420c-0.104,0.31-0.155,0.773-0.155,1.39   c0,1.854,1.082,3.449,3.246,4.788S99.031,428.184,101.504,428.184z M132.507,336.581l15.529,53.087h-30.748L132.507,336.581z"/>
	<path d="M194.576,428.184c2.271,0,4.207-0.488,5.81-1.47c1.6-0.979,2.4-2.293,2.4-3.944v-38.206h19.209   c10.533,0,18.976-2.758,25.327-8.275c6.351-5.516,9.526-14.153,9.526-25.909v-1.237c0-11.756-3.073-20.364-9.217-25.831   c-6.146-5.465-14.382-8.198-24.707-8.198h-30.207c-1.859,0-3.384,0.517-4.57,1.547c-1.188,1.031-1.781,2.27-1.781,3.712V422.77   c0,1.651,0.825,2.966,2.479,3.944C190.496,427.695,192.408,428.184,194.576,428.184z M202.786,329.652h19.209   c5.887,0,10.43,1.65,13.632,4.949c3.199,3.302,4.802,8.303,4.802,15.004v1.856c0,6.704-1.603,11.731-4.802,15.081   c-3.202,3.353-7.745,5.027-13.632,5.027h-19.209V329.652z"/>
	<path d="M341.272,349.142c0-11.756-3.073-20.364-9.217-25.831c-6.146-5.465-14.382-8.198-24.707-8.198h-30.207   c-1.859,0-3.384,0.517-4.57,1.547c-1.188,1.031-1.781,2.27-1.781,3.712V422.77c0,1.651,0.825,2.966,2.479,3.944   c1.651,0.981,3.563,1.47,5.731,1.47c2.271,0,4.207-0.488,5.81-1.47c1.6-0.979,2.4-2.293,2.4-3.944v-38.206h19.209   c10.533,0,18.976-2.758,25.327-8.275c6.351-5.516,9.526-14.153,9.526-25.909V349.142z M324.852,351.462   c0,6.704-1.603,11.731-4.802,15.081c-3.202,3.353-7.745,5.027-13.632,5.027h-19.209v-41.918h19.209   c5.887,0,10.43,1.65,13.632,4.949c3.199,3.302,4.802,8.303,4.802,15.004V351.462z"/>
</g>















</svg>
