<?xml version="1.0" encoding="iso-8859-1"?>
<!-- Generator: Adobe Illustrator 19.0.0, SVG Export Plug-In . SVG Version: 6.00 Build 0)  -->
<svg version="1.1" id="Layer_1" xmlns="http://www.w3.org/2000/svg" xmlns:xlink="http://www.w3.org/1999/xlink" x="0px" y="0px"
	 viewBox="0 0 512 512" style="enable-background:new 0 0 512 512;" xml:space="preserve">
<rect x="29.401" y="341.865" style="fill:#314A5F;" width="271.656" height="78.909"/>
<path style="fill:#FF6F52;" d="M337.344,420.771h-36.287V149.115h94.64c51.228,0,92.749,41.521,92.749,92.736v178.919h-44.57"/>
<g>
	<circle style="fill:#808080;" cx="122.617" cy="420.774" r="53.261"/>
	<circle style="fill:#808080;" cx="390.609" cy="420.774" r="53.261"/>
</g>
<path style="fill:#CFDCE5;" d="M448.497,282.945V241.85c0-29.107-23.686-52.786-52.801-52.786h-54.691v93.881H448.497z"/>
<g>
	<circle style="fill:#E6E6E6;" cx="122.617" cy="420.774" r="21.269"/>
	<circle style="fill:#E6E6E6;" cx="390.609" cy="420.774" r="21.269"/>
</g>
<polyline style="fill:#FCD577;" points="239.954,341.86 29.401,341.86 29.401,37.312 301.056,37.312 301.056,341.86 268.051,341.86 
	"/>
<path d="M395.583,180.961h-54.691c-4.655,0-8.429,3.774-8.429,8.429v52.783c0,4.655,3.774,8.429,8.429,8.429
	c4.655,0,8.429-3.774,8.429-8.429v-44.353h46.262c24.467,0,44.371,19.899,44.371,44.357v32.666h-90.633v-4.572
	c0-4.655-3.774-8.429-8.429-8.429c-4.655,0-8.429,3.774-8.429,8.429v13.001c0,4.655,3.774,8.429,8.429,8.429h107.491
	c4.655,0,8.429-3.774,8.429-8.429v-41.095C456.812,208.422,429.345,180.961,395.583,180.961z"/>
<path d="M122.503,450.794c16.375,0,29.698-13.323,29.698-29.698c0-16.375-13.323-29.698-29.698-29.698s-29.698,13.323-29.698,29.698
	C92.806,437.472,106.127,450.794,122.503,450.794z M122.503,408.256c7.079,0,12.839,5.76,12.839,12.839
	c0,7.079-5.76,12.839-12.839,12.839c-7.079,0-12.839-5.76-12.839-12.839C109.664,414.016,115.423,408.256,122.503,408.256z"/>
<path d="M390.495,391.398c-16.375,0-29.698,13.323-29.698,29.698c0,16.375,13.323,29.698,29.698,29.698
	c16.375,0,29.698-13.323,29.698-29.698C420.193,404.72,406.871,391.398,390.495,391.398z M390.495,433.936
	c-7.079,0-12.839-5.76-12.839-12.839c0-7.079,5.76-12.839,12.839-12.839c7.079,0,12.839,5.76,12.839,12.839
	C403.334,428.176,397.575,433.936,390.495,433.936z"/>
<path d="M448.383,322.115c-4.655,0-8.429,3.774-8.429,8.429v25.301c0,4.655,3.774,8.429,8.429,8.429
	c4.655,0,8.429-3.774,8.429-8.429v-25.301C456.812,325.889,453.038,322.115,448.383,322.115z"/>
<path d="M503.571,388.827h-6.81V242.176c0-55.782-45.388-101.165-101.177-101.165h-86.212V37.637c0-4.655-3.774-8.429-8.429-8.429
	H29.288c-4.655,0-8.429,3.774-8.429,8.429v351.19H8.429c-4.655,0-8.429,3.774-8.429,8.429c0,4.655,3.774,8.429,8.429,8.429h12.429
	v15.411c0,4.655,3.774,8.429,8.429,8.429h32.111c4.125,30.043,29.946,53.266,61.105,53.266c34.019,0,61.695-27.676,61.695-61.695
	s-27.676-61.695-61.695-61.695c-31.158,0-56.979,23.223-61.105,53.266H37.717v-6.982h8.429c4.655,0,8.429-3.774,8.429-8.429
	c0-4.655-3.774-8.429-8.429-8.429h-8.429v-38.212H239.84c4.655,0,8.429-3.774,8.429-8.429c0-4.655-3.774-8.429-8.429-8.429H37.717
	V46.067h254.797v103.375v184.315h-24.576c-4.655,0-8.429,3.774-8.429,8.429c0,4.655,3.774,8.429,8.429,8.429h24.576v62.052h-88.147
	c-4.655,0-8.429,3.774-8.429,8.429c0,4.655,3.774,8.429,8.429,8.429h125.024c4.125,30.043,29.946,53.266,61.105,53.266
	s56.979-23.223,61.105-53.266h36.731c4.655,0,8.429-3.774,8.429-8.429v-15.411h6.81c4.655,0,8.429-3.774,8.429-8.429
	C512,392.601,508.226,388.827,503.571,388.827z M122.503,376.259c24.723,0,44.837,20.113,44.837,44.837
	c0,24.723-20.113,44.837-44.837,44.837s-44.837-20.113-44.837-44.837C77.667,396.372,97.78,376.259,122.503,376.259z
	 M390.495,465.933c-24.718,0-44.829-20.106-44.837-44.822c0-0.004,0.001-0.01,0.001-0.015c0-0.004-0.001-0.01-0.001-0.015
	c0.008-24.716,20.119-44.822,44.837-44.822c24.723,0,44.837,20.113,44.837,44.837C435.331,445.82,415.218,465.933,390.495,465.933z
	 M479.903,412.667H451.6c-4.125-30.043-29.946-53.266-61.105-53.266s-56.979,23.223-61.105,53.266h-20.019V157.871h86.212
	c46.494,0,84.319,37.819,84.319,84.307v146.65h-14.049c-4.655,0-8.429,3.774-8.429,8.429c0,4.655,3.774,8.429,8.429,8.429h14.05
	V412.667z"/>
<path d="M104.676,241.514c-4.655,0-8.429,3.774-8.429,8.429v30.998c0,4.655,3.774,8.429,8.429,8.429h120.878
	c4.655,0,8.429-3.774,8.429-8.429V179.67l10.646,10.646c1.645,1.645,3.803,2.469,5.96,2.469c2.157,0,4.315-0.823,5.96-2.469
	c3.292-3.292,3.292-8.629,0-11.92l-28.802-28.802v-45.356c0-4.655-3.774-8.429-8.429-8.429h-28.1c-4.655,0-8.429,3.774-8.429,8.429
	v0.397l-11.713-11.713c-3.292-3.292-8.629-3.292-11.92,0l-85.474,85.474c-3.292,3.292-3.292,8.629,0,11.92
	c3.292,3.292,8.629,3.292,11.92,0l10.646-10.646v42.346c0,4.655,3.774,8.429,8.429,8.429s8.429-3.774,8.429-8.429v-59.204
	l52.01-52.01l52.01,52.01v109.701H113.105v-22.569C113.105,245.288,109.331,241.514,104.676,241.514z M199.647,112.666h11.241
	v20.066l-11.241-11.24V112.666z"/>
<path d="M188.195,255.557c4.655,0,8.429-3.774,8.429-8.429v-56.863c0-4.655-3.774-8.429-8.429-8.429h-46.159
	c-4.655,0-8.429,3.774-8.429,8.429v56.863c0,4.655,3.774,8.429,8.429,8.429H188.195z M150.465,198.694h29.301v40.005h-29.301
	V198.694z"/>
<g>
</g>
<g>
</g>
<g>
</g>
<g>
</g>
<g>
</g>
<g>
</g>
<g>
</g>
<g>
</g>
<g>
</g>
<g>
</g>
<g>
</g>
<g>
</g>
<g>
</g>
<g>
</g>
<g>
</g>
</svg>
