<?xml version="1.0" encoding="iso-8859-1"?>
<!-- Generator: Adobe Illustrator 19.0.0, SVG Export Plug-In . SVG Version: 6.00 Build 0)  -->
<svg version="1.1" id="Layer_1" xmlns="http://www.w3.org/2000/svg" xmlns:xlink="http://www.w3.org/1999/xlink" x="0px" y="0px"
	 viewBox="0 0 512.001 512.001" style="enable-background:new 0 0 512.001 512.001;" xml:space="preserve">
<path style="fill:#6EDCF9;" d="M454.402,9.5H158.177c-8.112,0-14.689,6.577-14.689,14.688V60.91h257.055
	c8.112,0,14.689,6.577,14.689,14.689v328.05h39.17c8.111,0,14.688-6.577,14.688-14.688c0-4.445,0-357.196,0-364.773
	C469.091,16.077,462.513,9.5,454.402,9.5z"/>
<path style="fill:#95E8FC;" d="M454.402,9.5H316.093c-32.284,11.396-61.628,29.008-86.594,51.41h171.044
	c8.112,0,14.689,6.577,14.689,14.689v328.05h39.17c8.111,0,14.688-6.577,14.688-14.688c0-4.445,0-357.196,0-364.773
	C469.091,16.077,462.513,9.5,454.402,9.5z"/>
<path style="fill:#F7AC16;" d="M401.543,59.91H105.318c-8.111,0-14.688,6.577-14.688,14.689v36.722h258.277
	c8.112,0,14.689,6.577,14.689,14.688v328.051h37.945c8.112,0,14.689-6.577,14.689-14.689V74.6
	C416.232,66.487,409.655,59.91,401.543,59.91z"/>
<path style="fill:#F4CA19;" d="M401.543,59.91H230.625c-17.004,15.082-32.006,32.366-44.561,51.411h162.843
	c8.112,0,14.689,6.577,14.689,14.688v328.051h37.945c8.112,0,14.689-6.577,14.689-14.689V74.6
	C416.232,66.487,409.655,59.91,401.543,59.91z"/>
<path style="fill:#EF5552;" d="M349.907,110.322H53.682c-8.111,0-14.688,6.577-14.688,14.688v263.479l115.984,115.983
	c4.507,0,192.279,0,194.929,0c8.112,0,14.689-6.577,14.689-14.688V125.011C364.596,116.899,358.019,110.322,349.907,110.322z"/>
<path style="fill:#FF6969;" d="M349.907,110.322H186.722C88.242,258.22,165.591,460.904,338.974,504.471h10.934
	c8.112,0,14.689-6.577,14.689-14.688V125.011C364.596,116.899,358.019,110.322,349.907,110.322z"/>
<path style="fill:#D63322;" d="M154.978,504.472V403.178c0-8.112-6.576-14.69-14.689-14.69H38.994L154.978,504.472z"/>
<path style="fill:#231F20;" d="M472.118,68.801c4.143,0,7.5-3.357,7.5-7.5V22.188C479.618,9.954,469.664,0,457.429,0H161.204
	c-12.235,0-22.188,9.954-22.188,22.188V51.41h-31.67c-12.235,0-22.189,9.954-22.189,22.189v29.222H54.71
	c-12.235,0-22.189,9.954-22.189,22.188c0,277.029-0.965,265.619,2.197,268.782c123.213,123.213,116.894,118.181,121.288,118.181
	h43.425c4.142,0,7.5-3.357,7.5-7.5c0-4.143-3.358-7.5-7.5-7.5h-35.925v-93.794c0-12.235-9.954-22.189-22.189-22.189H47.521V125.011
	c0-3.964,3.225-7.188,7.189-7.188c13.259,0,285.342,0,296.224,0c3.964,0,7.189,3.225,7.189,7.188c0,1.838,0,351.765,0,364.773
	c0,3.964-3.226,7.188-7.189,7.188H226.098c-4.142,0-7.5,3.357-7.5,7.5c0,4.143,3.358,7.5,7.5,7.5h124.836
	c12.235,0,22.189-9.954,22.189-22.188v-29.222h30.445c12.235,0,22.189-9.954,22.189-22.189V409.15h31.67
	c12.234,0,22.188-9.954,22.188-22.188V87.296c0-4.143-3.357-7.5-7.5-7.5s-7.5,3.357-7.5,7.5v299.666
	c0,3.964-3.225,7.188-7.188,7.188h-31.67V73.6c0-12.235-9.954-22.189-22.189-22.189H154.016V22.188c0-3.964,3.225-7.188,7.188-7.188
	h296.225c3.964,0,7.188,3.225,7.188,7.188V61.3C464.618,65.443,467.975,68.801,472.118,68.801z M141.317,395.988
	c3.964,0,7.189,3.226,7.189,7.189v83.188c-2.606-2.606-79.45-79.449-90.377-90.377H141.317z M403.57,66.41
	c3.964,0,7.189,3.226,7.189,7.189c0,1.838,0,351.764,0,364.772c0,3.964-3.226,7.189-7.189,7.189h-30.445v-320.55
	c0-12.234-9.954-22.188-22.189-22.188H100.157V73.6c0-3.964,3.225-7.189,7.189-7.189C117.452,66.41,393.441,66.41,403.57,66.41z"/>
<g>
</g>
<g>
</g>
<g>
</g>
<g>
</g>
<g>
</g>
<g>
</g>
<g>
</g>
<g>
</g>
<g>
</g>
<g>
</g>
<g>
</g>
<g>
</g>
<g>
</g>
<g>
</g>
<g>
</g>
</svg>
