<svg height="512pt" viewBox="0 0 512.002 512" width="512pt" xmlns="http://www.w3.org/2000/svg"><path d="m334 172c0 89.46875-72.53125 162-162 162s-162-72.53125-162-162 72.53125-162 162-162 162 72.53125 162 162zm0 0" fill="#feda9b"/><path d="m294 172c0 67.378906-54.621094 122-122 122s-122-54.621094-122-122 54.621094-122 122-122 122 54.621094 122 122zm0 0" fill="#ffc66c"/><path d="m378.09375 411.90625 83.089844 83.089844c9.339844 9.339844 24.476562 9.339844 33.8125 0 9.339844-9.335938 9.339844-24.472656 0-33.808594l-83.089844-83.09375zm0 0" fill="#ff5d5d"/><path d="m430.003906 310c0 66.273438-53.726562 120-120 120-66.273437 0-120-53.726562-120-120s53.726563-120 120-120c66.273438 0 120 53.726562 120 120zm0 0" fill="#fff"/><path d="m388.003906 310c0 43.078125-34.921875 78-78 78s-78-34.921875-78-78 34.921875-78 78-78 78 34.921875 78 78zm0 0" fill="#72d8ff"/><path d="m130.777344 143.121094c0 17.933594 13.3125 33.023437 31.222656 37.1875v35.648437c-6.671875-3.09375-11.222656-9.175781-11.222656-16.164062 0-5.523438-4.476563-10-10-10-5.519532 0-10 4.476562-10 10 0 17.929687 13.3125 33.019531 31.222656 37.1875v4.019531c0 5.519531 4.476562 10 10 10s10-4.480469 10-10v-4.019531c17.910156-4.167969 31.222656-19.257813 31.222656-37.1875 0-17.933594-13.3125-33.023438-31.222656-37.191407v-35.644531c6.671875 3.09375 11.222656 9.175781 11.222656 16.164063 0 5.523437 4.476563 10 10 10 5.519532 0 10-4.476563 10-10 0-17.929688-13.3125-33.019532-31.222656-37.1875v-2.933594c0-5.523438-4.476562-10-10-10s-10 4.476562-10 10v2.933594c-17.910156 4.167968-31.222656 19.257812-31.222656 37.1875zm62.445312 56.671875c0 6.988281-4.550781 13.070312-11.222656 16.164062v-32.328125c6.671875 3.09375 11.222656 9.175782 11.222656 16.164063zm-31.222656-72.832031v32.324218c-6.671875-3.09375-11.222656-9.175781-11.222656-16.164062 0-6.988282 4.550781-13.070313 11.222656-16.160156zm0 0"/><path d="m172 60 1.085938.003906h.078124c5.488282 0 9.957032-4.425781 9.996094-9.921875.042969-5.523437-4.398437-10.035156-9.921875-10.078125l-1.238281-.003906c-5.523438 0-10 4.476562-10 10s4.476562 10 10 10zm0 0"/><path d="m310.003906 222c-48.523437 0-88 39.476562-88 88s39.476563 88 88 88c48.523438 0 88-39.476562 88-88s-39.476562-88-88-88zm0 156c-37.492187 0-68-30.503906-68-68s30.507813-68 68-68c37.496094 0 68 30.503906 68 68s-30.503906 68-68 68zm0 0"/><path d="m502.066406 454.113281-79.363281-79.363281c11-19.078125 17.300781-41.191406 17.300781-64.75 0-60.089844-40.980468-110.777344-96.460937-125.605469.292969-4.121093.457031-8.265625.457031-12.394531 0-94.839844-77.160156-172-172-172s-172 77.160156-172 172 77.160156 172 172 172c4.128906 0 8.277344-.160156 12.402344-.453125 14.828125 55.472656 65.515625 96.453125 125.601562 96.453125 23.558594 0 45.667969-6.296875 64.742188-17.296875l79.367187 79.367187c6.613281 6.609376 15.296875 9.914063 23.980469 9.914063s17.367188-3.304687 23.976562-9.914063c6.402344-6.40625 9.933594-14.921874 9.933594-23.980468s-3.53125-17.570313-9.9375-23.976563zm-330.066406-130.113281c-83.8125 0-152-68.1875-152-152s68.1875-152 152-152 152 68.1875 152 152c0 2.90625-.085938 5.820312-.25 8.726562-4.519531-.476562-9.101562-.726562-13.746094-.726562-2.097656 0-4.183594.054688-6.257812.152344.164062-2.714844.253906-5.4375.253906-8.152344 0-27.199219-8.210938-53.324219-23.738281-75.542969-15.175781-21.707031-36.210938-38.195312-60.832031-47.679687-5.152344-1.980469-10.941407.585937-12.925782 5.738281-1.984375 5.15625.582032 10.941406 5.738282 12.925781 42.917968 16.535156 71.757812 58.550782 71.757812 104.558594 0 3.574219-.171875 7.167969-.507812 10.722656-50.445313 10.492188-90.265626 50.308594-100.761719 100.75-3.5625.339844-7.148438.527344-10.730469.527344-61.757812 0-112-50.242188-112-112 0-46.011719 28.839844-88.027344 71.765625-104.558594 5.15625-1.984375 7.722656-7.769531 5.738281-12.925781-1.984375-5.152344-7.769531-7.726563-12.925781-5.738281-24.625 9.480468-45.660156 25.96875-60.835937 47.675781-15.53125 22.222656-23.742188 48.34375-23.742188 75.546875 0 72.785156 59.214844 132 132 132 2.71875 0 5.441406-.101562 8.160156-.269531-.101562 2.078125-.15625 4.167969-.15625 6.269531 0 4.644531.25 9.226562.726563 13.746094-2.90625.164062-5.824219.253906-8.730469.253906zm28.003906-14c0-60.652344 49.347656-110 110-110 60.65625 0 110 49.347656 110 110s-49.34375 110-110 110c-60.652344 0-110-49.34375-110-110zm287.921875 177.925781c-5.421875 5.421875-14.246093 5.425781-19.667969 0l-76.738281-76.738281c7.234375-5.835938 13.832031-12.433594 19.667969-19.667969l76.738281 76.738281c2.628907 2.625 4.074219 6.121094 4.074219 9.835938s-1.445312 7.207031-4.074219 9.832031zm0 0"/><path d="m310.003906 265.003906c-5.519531 0-10 4.476563-10 10 0 5.523438 4.480469 10 10 10 13.78125 0 24.996094 11.214844 24.996094 24.996094 0 5.523438 4.476562 10 10 10s10-4.476562 10-10c0-24.808594-20.183594-44.996094-44.996094-44.996094zm0 0"/></svg>