<?xml version="1.0" encoding="iso-8859-1"?>
<!-- Generator: Adobe Illustrator 19.0.0, SVG Export Plug-In . SVG Version: 6.00 Build 0)  -->
<svg version="1.1" id="Capa_1" xmlns="http://www.w3.org/2000/svg" xmlns:xlink="http://www.w3.org/1999/xlink" x="0px" y="0px"
	 viewBox="0 0 480 480" style="enable-background:new 0 0 480 480;" xml:space="preserve">
<g>
	<circle style="fill:#E9CD4B;" cx="432" cy="136" r="32"/>
	<circle style="fill:#E9CD4B;" cx="56" cy="72" r="32"/>
</g>
<path style="fill:#65CECC;" d="M392,232V8H88v224c26.51,0,48,21.49,48,48s-21.49,48-48,48c31.877,0,59.315,8.405,72.165,24h7.655
	c12.856-15.594,40.3-24,72.18-24c-26.51,0-48-21.49-48-48s21.49-48,48-48s48,21.49,48,48s-21.49,48-48,48
	c31.88,0,59.324,8.406,72.18,24h7.655c12.85-15.595,40.288-24,72.165-24c-26.51,0-48-21.49-48-48S365.49,232,392,232z"/>
<path style="fill:#DE2F55;" d="M270.52,135.056l-29.904-15.848L211.192,136l5.16-34.656L192,77.248l33.096-5.568L239.472,40
	l15.288,31.208l33.24,4.52l-23.648,24.856L270.52,135.056z"/>
<path style="fill:#E9CD4B;" d="M392,328c-35.484,0-65.528,10.385-76,29.544c2.641,4.786,4.017,10.166,4,15.632V472h152v-98.824
	C472,344.068,436.183,328,392,328z"/>
<path style="fill:#00BA54;" d="M164,357.544C153.528,338.385,123.484,328,88,328c-44.183,0-80,16.068-80,45.176V472h152v-98.824
	C159.983,367.71,161.359,362.33,164,357.544z"/>
<path style="fill:#DE2F55;" d="M320,472H160v-98.824C160,344.068,195.817,328,240,328c44.183,0,80,16.068,80,45.176V472z"/>
<circle style="fill:#00BA54;" cx="88" cy="280" r="48"/>
<circle style="fill:#DE2F55;" cx="240" cy="280" r="48"/>
<circle style="fill:#E9CD4B;" cx="392" cy="280" r="48"/>
<path d="M426.997,323.646c24.118-19.273,28.045-54.447,8.773-78.565c-8.886-11.12-21.679-18.431-35.77-20.442V160h-16v64.639
	c-30.563,4.363-51.802,32.676-47.439,63.24c2.009,14.071,9.303,26.849,20.397,35.734c-15.408,2.771-29.67,9.986-41.03,20.759
	c-11.349-10.727-25.569-17.926-40.932-20.725c24.144-19.328,28.049-54.57,8.72-78.714c-19.328-24.144-54.57-28.049-78.714-8.72
	s-28.049,54.57-8.72,78.714c2.577,3.219,5.501,6.143,8.72,8.72c-15.363,2.799-29.583,9.999-40.932,20.725
	c-11.36-10.772-25.622-17.988-41.03-20.759c24.098-19.298,27.99-54.477,8.692-78.576c-8.885-11.095-21.662-18.389-35.734-20.397V96
	H80v128.639c-30.562,4.363-51.802,32.675-47.439,63.237c2.011,14.091,9.322,26.884,20.442,35.77C20.305,331.017,0,349.097,0,373.18
	V472c-0.003,4.416,3.575,7.997,7.991,8c0.003,0,0.006,0,0.009,0h464c4.416,0.003,7.997-3.575,8-7.991c0-0.003,0-0.006,0-0.009
	v-98.82C480,349.097,459.695,331.017,426.997,323.646L426.997,323.646z M48,280c0-22.091,17.909-40,40-40s40,17.909,40,40
	s-17.909,40-40,40C65.919,319.974,48.026,302.081,48,280z M152,373.18V464H16v-90.82C16,347.633,53.32,336,88,336
	c31.762,0,56.727,8.564,66.865,22.451C152.983,363.134,152.01,368.133,152,373.18z M200,280c0-22.091,17.909-40,40-40
	c22.091,0,40,17.909,40,40s-17.909,40-40,40C217.919,319.974,200.026,302.081,200,280z M312,464H168v-90.82
	c0-25.547,37.32-37.18,72-37.18s72,11.633,72,37.18V464z M352,280c0-22.091,17.909-40,40-40s40,17.909,40,40s-17.909,40-40,40
	C369.919,319.974,352.026,302.081,352,280z M464,464H328v-90.82c-0.01-5.047-0.983-10.046-2.865-14.728
	C335.273,344.564,360.238,336,392,336c34.68,0,72,11.633,72,37.18V464z"/>
<path d="M400,112h-16V16H96v32H80V8c-0.003-4.416,3.575-7.997,7.991-8C87.994,0,87.997,0,88,0h304c4.416-0.003,7.997,3.575,8,7.991
	c0,0.003,0,0.006,0,0.009V112z"/>
<path d="M312,32h16v16h-16V32z"/>
<path d="M312,64h16v16h-16V64z"/>
<path d="M312,96h16v16h-16V96z"/>
<path d="M312,128h16v16h-16V128z"/>
<path d="M152,32h16v16h-16V32z"/>
<path d="M152,64h16v16h-16V64z"/>
<path d="M152,96h16v16h-16V96z"/>
<path d="M152,128h16v16h-16V128z"/>
<path d="M312,160h16v16h-16V160z"/>
<path d="M344,32h16v16h-16V32z"/>
<path d="M344,64h16v16h-16V64z"/>
<path d="M344,96h16v16h-16V96z"/>
<path d="M344,128h16v16h-16V128z"/>
<path d="M344,160h16v16h-16V160z"/>
<path d="M280,160h16v16h-16V160z"/>
<path d="M248,160h16v16h-16V160z"/>
<path d="M216,160h16v16h-16V160z"/>
<path d="M184,160h16v16h-16V160z"/>
<path d="M152,160h16v16h-16V160z"/>
<path d="M120,32h16v16h-16V32z"/>
<path d="M120,64h16v16h-16V64z"/>
<path d="M120,96h16v16h-16V96z"/>
<path d="M120,128h16v16h-16V128z"/>
<path d="M120,160h16v16h-16V160z"/>
<path d="M312,192h16v16h-16V192z"/>
<path d="M344,192h16v16h-16V192z"/>
<path d="M280,192h16v16h-16V192z"/>
<path d="M248,192h16v16h-16V192z"/>
<path d="M216,192h16v16h-16V192z"/>
<path d="M184,192h16v16h-16V192z"/>
<path d="M152,192h16v16h-16V192z"/>
<path d="M120,192h16v16h-16V192z"/>
<path d="M56,112c-4.416,0.003-7.997-3.575-8-7.991c0-0.003,0-0.006,0-0.009c-0.014-13.249-10.751-23.986-24-24c-4.418,0-8-3.582-8-8
	s3.582-8,8-8c13.249-0.014,23.986-10.751,24-24c0-4.418,3.582-8,8-8s8,3.582,8,8c0.014,13.249,10.751,23.986,24,24
	c4.418,0,8,3.582,8,8s-3.582,8-8,8c-13.249,0.014-23.986,10.751-24,24c0.003,4.416-3.575,7.997-7.991,8
	C56.006,112,56.003,112,56,112z M47.977,72c3.04,2.282,5.741,4.983,8.023,8.023c2.282-3.04,4.983-5.741,8.023-8.023
	c-3.04-2.282-5.741-4.983-8.023-8.023C53.718,67.017,51.016,69.718,47.977,72z"/>
<path d="M432,176c-4.416,0.003-7.997-3.575-8-7.991c0-0.003,0-0.006,0-0.009c-0.014-13.249-10.751-23.986-24-24
	c-4.418,0-8-3.582-8-8s3.582-8,8-8c13.249-0.014,23.986-10.751,24-24c0-4.418,3.582-8,8-8s8,3.582,8,8
	c0.014,13.249,10.751,23.986,24,24c4.418,0,8,3.582,8,8s-3.582,8-8,8c-13.249,0.014-23.986,10.751-24,24
	c0.003,4.416-3.575,7.997-7.991,8C432.006,176,432.003,176,432,176z M423.977,136c3.04,2.282,5.741,4.983,8.023,8.023
	c2.282-3.04,4.983-5.741,8.023-8.023c-3.04-2.282-5.741-4.983-8.023-8.023C429.718,131.017,427.016,133.718,423.977,136z"/>
<g>
</g>
<g>
</g>
<g>
</g>
<g>
</g>
<g>
</g>
<g>
</g>
<g>
</g>
<g>
</g>
<g>
</g>
<g>
</g>
<g>
</g>
<g>
</g>
<g>
</g>
<g>
</g>
<g>
</g>
</svg>
